<svg width="400" height="150" viewBox="0 0 400 150" fill="none" xmlns="http://www.w3.org/2000/svg">
<g clip-path="url(#clip0_1_2)">
<path d="M81.75 94.875H49.5L45.0625 110H16.125L50.5625 18.375H81.4375L115.875 110H86.25L81.75 94.875ZM75.8125 75.0625L65.6875 42.125L55.625 75.0625H75.8125ZM180.387 18.375V110H156.575V100.188C153.242 104.354 150.2 107.167 147.45 108.625C143.783 110.542 139.7 111.5 135.2 111.5C126.158 111.5 119.242 108.062 114.45 101.188C109.7 94.3125 107.325 85.9583 107.325 76.125C107.325 65.125 109.95 56.7083 115.2 50.875C120.492 45.0417 127.2 42.125 135.325 42.125C139.283 42.125 142.867 42.7917 146.075 44.125C149.325 45.4583 152.2 47.4583 154.7 50.125V18.375H180.387ZM154.887 76.625C154.887 71.4167 153.783 67.5417 151.575 65C149.367 62.4167 146.575 61.125 143.2 61.125C140.242 61.125 137.762 62.3542 135.762 64.8125C133.762 67.2708 132.762 71.3958 132.762 77.1875C132.762 82.6042 133.783 86.5833 135.825 89.125C137.908 91.625 140.471 92.875 143.512 92.875C146.762 92.875 149.471 91.6042 151.637 89.0625C153.804 86.5208 154.887 82.375 154.887 76.625ZM179.962 77C179.962 66.875 183.379 58.5417 190.212 52C197.046 45.4167 206.275 42.125 217.9 42.125C231.192 42.125 241.233 45.9792 248.025 53.6875C253.483 59.8958 256.212 67.5417 256.212 76.625C256.212 86.8333 252.817 95.2083 246.025 101.75C239.275 108.25 229.921 111.5 217.962 111.5C207.296 111.5 198.671 108.792 192.087 103.375C184.004 96.6667 179.962 87.875 179.962 77ZM205.462 76.9375C205.462 82.8542 206.65 87.2292 209.025 90.0625C211.442 92.8958 214.462 94.3125 218.087 94.3125C221.754 94.3125 224.754 92.9167 227.087 90.125C229.462 87.3333 230.65 82.8542 230.65 76.6875C230.65 70.9375 229.462 66.6667 227.087 63.875C224.712 61.0417 221.775 59.625 218.275 59.625C214.567 59.625 211.504 61.0625 209.087 63.9375C206.671 66.7708 205.462 71.1042 205.462 76.9375ZM257.225 18.375H304.288C314.538 18.375 322.204 20.8125 327.288 25.6875C332.413 30.5625 334.975 37.5 334.975 46.5C334.975 55.75 332.183 62.9792 326.6 68.1875C321.058 73.3958 312.579 76 301.163 76H285.663V110H257.225V18.375ZM285.663 57.4375H292.6C298.058 57.4375 301.892 56.5 304.1 54.625C306.308 52.7083 307.413 50.2708 307.413 47.3125C307.413 44.4375 306.454 42 304.538 40C302.621 38 299.017 37 293.725 37H285.663V57.4375ZM366.05 18.375V43.625H380.05V62.1875H366.05V85.75C366.05 88.5833 366.321 90.4583 366.862 91.375C367.696 92.7917 369.154 93.5 371.237 93.5C373.112 93.5 375.737 92.9583 379.112 91.875L380.987 109.438C374.696 110.812 368.821 111.5 363.362 111.5C357.029 111.5 352.362 110.688 349.362 109.062C346.362 107.438 344.133 104.979 342.675 101.688C341.258 98.3542 340.55 92.9792 340.55 85.5625V62.1875H331.175V43.625H340.55V31.4375L366.05 18.375Z" fill="#002F0D"/>
<path d="M355.666 125.46L306.503 111.894C305.859 115.953 306.114 119.178 307.269 121.572C308.874 124.997 311.585 127.236 315.401 128.289C317.811 128.954 320.266 128.983 322.768 128.377C324.304 127.979 326.101 127.027 328.159 125.52L351.704 134.416C346.235 139.823 340.502 143.212 334.505 144.582C328.519 145.913 320.645 145.232 310.885 142.539C302.41 140.2 296.07 137.176 291.863 133.465C287.668 129.714 284.679 124.804 282.895 118.736C281.163 112.639 281.267 106.076 283.206 99.0473C285.966 89.0461 291.392 81.8338 299.485 77.4104C307.619 72.9981 317.328 72.3491 328.615 75.4634C337.773 77.9903 344.62 81.3709 349.157 85.6053C353.695 89.8396 356.623 94.97 357.943 100.996C359.262 107.023 358.758 114.253 356.431 122.688L355.666 125.46ZM333.965 106.829C334.791 101.956 334.442 98.2076 332.919 95.5829C331.435 92.9692 329.007 91.1969 325.633 90.2659C321.737 89.1909 318.197 89.8784 315.014 92.3283C312.996 93.8462 311.26 96.4576 309.805 100.163L333.965 106.829Z" fill="url(#paint0_linear_1_2)"/>
</g>
<defs>
<linearGradient id="paint0_linear_1_2" x1="335.73" y1="53.4374" x2="314.451" y2="130.556" gradientUnits="userSpaceOnUse">
<stop stop-color="#87E2A0"/>
<stop offset="1" stop-color="#366958"/>
</linearGradient>
<clipPath id="clip0_1_2">
<rect width="400" height="150" fill="white"/>
</clipPath>
</defs>
</svg>
